<?xml version="1.0" encoding="utf-8"?>
<!-- Generator: Adobe Illustrator 19.1.0, SVG Export Plug-In . SVG Version: 6.00 Build 0)  -->
<svg version="1.1" id="Layer_1" xmlns="http://www.w3.org/2000/svg" xmlns:xlink="http://www.w3.org/1999/xlink" x="0px" y="0px"
	 viewBox="0 0 296.2 254" style="enable-background:new 0 0 296.2 254;" xml:space="preserve">
<style type="text/css">
	.st0{clip-path:url(#SVGID_2_);}
	.st1{fill:url(#SVGID_3_);}
	.st2{clip-path:url(#SVGID_2_);fill:#3D6430;}
	.st3{fill:#9DD1D8;}
	.st4{fill:#3D6430;}
	.st5{fill:#DFEFF1;stroke:#3D6430;stroke-width:0.5;}
	.st6{fill:url(#SVGID_4_);}
	.st7{fill:url(#SVGID_5_);}
	.st8{fill:url(#SVGID_6_);}
	.st9{fill:url(#SVGID_7_);}
	.st10{fill:url(#SVGID_8_);}
	.st11{fill:url(#SVGID_9_);}
	.st12{fill:url(#SVGID_10_);}
	.st13{fill:url(#SVGID_11_);}
	.st14{fill:url(#SVGID_12_);}
</style>
<g>
	<defs>
		<polygon id="SVGID_1_" points="271.5,232.8 22.4,232.8 22.4,54.5 271.5,54.5 		"/>
	</defs>
	<clipPath id="SVGID_2_">
		<use xlink:href="#SVGID_1_"  style="overflow:visible;"/>
	</clipPath>
	<g class="st0">
		<linearGradient id="SVGID_3_" gradientUnits="userSpaceOnUse" x1="143.856" y1="83.7141" x2="143.856" y2="145.308">
			<stop  offset="7.185630e-02" style="stop-color:#8AB38B"/>
			<stop  offset="0.3713" style="stop-color:#AAC89E"/>
			<stop  offset="0.43" style="stop-color:#B4CD9F"/>
			<stop  offset="0.611" style="stop-color:#CDDDA2"/>
			<stop  offset="0.7186" style="stop-color:#D7E3A3"/>
			<stop  offset="0.7818" style="stop-color:#D7E3A6"/>
			<stop  offset="0.8403" style="stop-color:#D7E4AE"/>
			<stop  offset="0.897" style="stop-color:#D7E5BC"/>
			<stop  offset="0.9521" style="stop-color:#D6E7CF"/>
			<stop  offset="1" style="stop-color:#D6E8E4"/>
		</linearGradient>
		<path class="st1" d="M9.9,163.3c42.5-19.1,68.9-17.6,86.5,2.9c22.3,26,30.8-4.4,73.3,1.5c22,3,33.7-33.7,76.2-13.2
			c16,7.7,31.8,2,36.2,4.2l-7-66.6c-25.5-7-25.5-11.8-49.4-14.1c-26.4-2.6-32.8,6.6-54.9,5c-22.1-1.6-23.4-16-48-15.2
			c-25.3,0.8-42.3,13.2-73.1,13.2c-0.6,0-39.7-5-39.6,12.7C10.2,104.1,0.4,167.6,9.9,163.3z"/>
	</g>
	<path class="st2" d="M259.5,151.3c2.2-0.6,4.2-1.6,6-2.9c2.1-1.6,3.7-3.8,5-6.6c1.3-2.8,1.9-6.4,1.9-10.8v-11.7h-17
		c0,3-0.1,5.5-0.2,7.4c-0.2,2-0.4,3.5-0.8,4.7c-0.4,1.2-0.9,2-1.6,2.5c-0.7,0.5-1.6,0.7-2.7,0.7c-1.3,0-2.4-0.3-3.2-1
		c-0.8-0.6-1.4-1.8-1.8-3.4c-0.4-1.6-0.7-3.8-0.8-6.6c-0.1-2.8-0.2-6.3-0.2-10.5c0-4.2,0.1-7.7,0.2-10.5c0.1-2.8,0.4-5,0.8-6.6
		c0.4-1.6,1-2.8,1.8-3.4c0.8-0.6,1.8-1,3.2-1c1.7,0,2.9,0.6,3.7,1.9c0.8,1.3,1.1,3.7,1.1,7.3v3.5h17v-4c0-3-0.4-5.8-1.2-8.2
		c-0.2-0.5-0.3-0.9-0.5-1.3c-9.4-6.4-16.6-8.9-27.2-9.7c-1.6,0.3-3.1,0.6-4.4,1.1c-3.1,1.1-5.6,3-7.5,5.6c-1.9,2.6-3.2,5.9-4,10.1
		c-0.8,4.2-1.2,9.2-1.2,15.2c0,5.9,0.3,10.8,1,15c0.5,3.3,1.4,10.7,2.7,14.8c4.9,0.9,10.2,2.5,16.2,5.3
		C250.3,150.3,254.9,151.2,259.5,151.3z"/>
	<path class="st2" d="M200.7,147.8c5.1-2.8,10.8-5.2,17.6-5.8V77.6c-7-0.1-11.9,0.4-17.6,1.7V147.8z"/>
	<path class="st2" d="M186.2,117.6c-2.1-1.7-4.5-3.2-6.9-4.3c-2.5-1.1-4.8-2.2-6.9-3.2c-2.1-1-3.9-2.3-5.4-3.7
		c-1.4-1.4-2.1-3.4-2.1-5.8c0-1.7,0.4-3.2,1.3-4.6c0.9-1.4,2.3-2.1,4.2-2.1c1.7,0,3,0.8,3.8,2.4c0.8,1.6,1.2,3.5,1.2,5.7v1.8h16.5
		c0-8.1-1.7-13.9-5.2-17.6c-3.4-3.7-9-5.5-16.7-5.5c-7.4,0-13,2-16.7,6c-3.7,4-5.5,9.8-5.5,17.4c0,4.4,0.7,8,2,10.7
		c1.4,2.7,3.1,4.9,5.1,6.6c2,1.7,4.3,3,6.7,4.1c2.4,1,4.6,2.1,6.7,3.1c2.1,1,3.8,2.2,5.1,3.7c1.4,1.4,2,3.4,2,5.8
		c0,2-0.5,3.7-1.5,5.1c-1,1.4-2.4,2.1-4.2,2.1c-1.7,0-3.1-0.6-4.2-1.9c-1.1-1.3-1.6-3.6-1.6-6.8V135h-17v11.4c0,3.9,0.5,7.2,1.5,9.9
		c0.7,1.8,1.6,3.4,2.7,4.7c5.3-0.6,11.4-0.6,18.3,0.4c8,1.1,14.6-3,21.8-7.8c1.5-5.8,2.3-13.1,2.3-18c0-4.6-0.7-8.2-2.1-11.1
		C190.1,121.7,188.4,119.4,186.2,117.6z"/>
	<path class="st2" d="M122.8,67.9v78.3c0,3.5-0.5,5.9-1.4,7.1c-0.9,1.2-2.2,1.8-3.9,1.8c-1.6,0-2.9-0.6-3.9-1.8
		c-0.9-1.2-1.4-3.5-1.4-7.1V68.9c-6.1,1-11.8,2.4-17.6,4.1v72.9c0,5.1,0.5,9.3,1.5,12.7c0.2,0.6,0.4,1.2,0.6,1.8
		c14.5,16.5,23.2,9.2,39.6,3.9c1-1.6,1.9-3.5,2.6-5.7c1-3.4,1.5-7.6,1.5-12.7V70.8C135.9,68.9,130.5,67.6,122.8,67.9z"/>
	<path class="st2" d="M85.8,150.6l0.8-75.3c-7.9,2.2-16.3,4.3-26,5.3l-7.1,41.6h-0.2l-7.2-41.4c-5.6-0.4-16.9-0.9-25.3,1.7
		l-5.7,72.2c7.7-3.3,14.9-5.8,21.6-7.6l0.8-49.3h0.2l8.2,47.2c5.5-1,10.5-1.5,15.3-1.4l7.9-45.8h0.2v46.6
		C75.4,145.3,80.9,147.4,85.8,150.6z"/>
	<g class="st0">
		<path class="st3" d="M7,110.7c2-7.5,3.1-13.6,3.1-16.9C10,76.1,49,81.1,49.7,81.1c30.8,0,47.7-12.4,73.1-13.2
			c24.7-0.8,25.9,13.6,48,15.2c22.1,1.6,28.4-7.6,54.9-5c23.8,2.3,23.8,7.1,49.4,14.1l5.5,18.2c-1.1-17.3-2.3-29.3-2.3-29.3
			c-3.6-27.5-37.8-18.5-45.8-22.3c-16.4-7.8-34.6,7.8-46.8,4.4c-24.3-6.9-21.8-8-39.7-2.2c-18.1,5.9-17.2-2-34.1-2.6
			c-11-0.4-33.2,2.8-44.4,8.3C50.3,75.1-0.6,45.2,10.2,87.4C10.3,87.9,9,96.9,7,110.7z"/>
	</g>
	<g class="st0">
		<path class="st4" d="M281.7,155.3c-11.7,0.5-24.2,3.9-35.9-1.8c-42.5-20.5-54.2,16.2-76.2,13.2c-42.5-5.9-51,24.5-73.3-1.5
			c-16.7-19.5-41.3-21.8-80-5.7c-2.1,0.9-2.7,79.3-2.7,79.3l269.4,0.9C283,239.7,286,155.1,281.7,155.3z"/>
	</g>
</g>
<g>
	<g>
		<path class="st5" d="M98.6,188.8v6.3H82v7.3h15.1v5.9H82v8.4h17v6.3H74.4v-34.2H98.6z"/>
		<path class="st5" d="M110.8,214.6c0.4,0.8,1,1.4,1.7,1.9c0.7,0.5,1.5,0.9,2.4,1.1c0.9,0.2,1.9,0.4,2.9,0.4c0.7,0,1.4-0.1,2.2-0.2
			c0.8-0.1,1.5-0.3,2.2-0.6c0.7-0.3,1.2-0.8,1.7-1.3c0.4-0.6,0.7-1.3,0.7-2.1c0-0.9-0.3-1.7-0.9-2.3c-0.6-0.6-1.4-1.1-2.3-1.4
			c-1-0.4-2-0.7-3.3-1c-1.2-0.3-2.4-0.6-3.7-1c-1.3-0.3-2.5-0.7-3.7-1.2c-1.2-0.5-2.3-1.1-3.3-1.8c-1-0.7-1.7-1.7-2.3-2.8
			c-0.6-1.1-0.9-2.4-0.9-4c0-1.8,0.4-3.3,1.1-4.6c0.7-1.3,1.7-2.4,3-3.2c1.2-0.9,2.6-1.5,4.1-1.9c1.5-0.4,3.1-0.6,4.6-0.6
			c1.8,0,3.5,0.2,5.2,0.6c1.6,0.4,3.1,1,4.4,1.9c1.3,0.9,2.3,2,3,3.4c0.8,1.4,1.1,3.1,1.1,5.1h-7.3c-0.1-1-0.3-1.9-0.6-2.5
			c-0.4-0.7-0.9-1.2-1.5-1.6c-0.6-0.4-1.3-0.7-2.1-0.8c-0.8-0.2-1.6-0.2-2.6-0.2c-0.6,0-1.2,0.1-1.8,0.2c-0.6,0.1-1.2,0.4-1.7,0.7
			c-0.5,0.3-0.9,0.7-1.2,1.2c-0.3,0.5-0.5,1.1-0.5,1.8c0,0.7,0.1,1.2,0.4,1.6c0.3,0.4,0.8,0.8,1.5,1.2c0.8,0.4,1.8,0.7,3.1,1.1
			c1.3,0.3,3.1,0.8,5.2,1.3c0.6,0.1,1.5,0.4,2.7,0.7c1.1,0.3,2.3,0.9,3.4,1.6c1.1,0.7,2.1,1.7,2.9,2.9c0.8,1.2,1.2,2.8,1.2,4.7
			c0,1.6-0.3,3-0.9,4.4c-0.6,1.3-1.5,2.5-2.7,3.5c-1.2,1-2.7,1.7-4.5,2.3c-1.8,0.5-3.8,0.8-6.2,0.8c-1.9,0-3.7-0.2-5.5-0.7
			c-1.8-0.5-3.3-1.2-4.7-2.2c-1.4-1-2.4-2.3-3.2-3.8c-0.8-1.5-1.2-3.4-1.2-5.5h7.3C110.2,212.8,110.4,213.8,110.8,214.6z"/>
		<path class="st5" d="M133.1,195.1v-6.3h28.1v6.3h-10.3V223h-7.5v-27.9H133.1z"/>
		<path class="st5" d="M172.3,188.8V223h-7.5v-34.2H172.3z"/>
		<path class="st5" d="M187.9,223l-11.1-34.2h7.7l7.6,24.1h0.1l7.7-24.1h7.8L196.4,223H187.9z"/>
		<path class="st5" d="M224.7,188.8l12.8,34.2h-7.8l-2.6-7.6h-12.8l-2.7,7.6H204l13-34.2H224.7z M225.1,209.8l-4.3-12.6h-0.1
			l-4.5,12.6H225.1z"/>
		<path class="st5" d="M247.9,188.8v27.9h15.2v6.3h-22.8v-34.2H247.9z"/>
		<path class="st5" d="M78,161.5c-4.5-0.9-11.5,0.8-16.5,4.9c-4.4,3.7-7.8,9-10,17.4c0,0-0.4,1.6-1,5.3l-1.1,0l-6.4,0
			c-0.8,0-1.4,0.3-2,0.7c-0.4,0.4-1,1.5-1.1,2.3c0,1.3,0.7,2.9,2.5,2.9l5.4,0l1.7,0c-0.4,3.4-0.5,5.2-0.6,5.2
			c-2.9,18.9-4.3,20.1-11,21.3c-3.3,0.6-3.9-2.2-2.5-3.2c2.3-1.6,4.5-2.7,4.3-5.2c-0.2-2.5-2.7-4.3-5.5-4.1
			c-1.9,0.2-3.6,1.2-4.6,2.2c-1.6,1.7-2.5,4.4-2.2,7.3c0.3,2.9,2.8,6.4,7.8,7.3c1.3,0.2,2.9,0.4,4.6,0.1c3.6-0.5,5.8-1.8,8.5-3.7
			c3.5-2.3,6.8-6.8,10-15.4c1-2.7,2.2-7,2.2-7.1c0,0,0.4-2.1,0.9-4.7l6,0c0.8,0,1.8-0.3,2.3-0.8c0.6-0.6,0.9-2.1,0.9-2.7
			c0-1.3-1.2-2.4-2.6-2.4l-5.3,0l-0.3,0c0.7-3.5,1.5-7.2,1.5-7.2c2.9-12.2,5.1-14.6,10.5-15.4c0.3,0,0.6-0.1,0.9-0.1
			c1.9-0.2,2.4,0.7,2.6,1c1.4,3-5.4,3.5-5.1,9.6c0.1,2.5,2.7,4.3,5.5,4.1c2.2-0.2,4-1.8,4.9-3c0.9-1.2,2-3.4,2-7.4
			C85.6,167.4,83,162.5,78,161.5z"/>
	</g>
</g>
<radialGradient id="SVGID_4_" cx="169.6391" cy="91.6823" r="117.4502" gradientUnits="userSpaceOnUse">
	<stop  offset="0.3952" style="stop-color:#FFD64F"/>
	<stop  offset="0.6168" style="stop-color:#F15B67"/>
	<stop  offset="0.7539" style="stop-color:#776989"/>
	<stop  offset="0.8263" style="stop-color:#1A6A99"/>
</radialGradient>
<polygon class="st6" points="169.4,13.9 175.2,26.5 187.4,28.9 178.8,39.1 180.6,53.2 169.4,46.8 158.3,53.2 160.1,39.1 151.4,28.9 
	163.7,26.5 "/>
<g>
	<radialGradient id="SVGID_5_" cx="170.0657" cy="91.2562" r="162.5357" gradientUnits="userSpaceOnUse">
		<stop  offset="0.1317" style="stop-color:#FFD540"/>
		<stop  offset="0.509" style="stop-color:#F15B67"/>
		<stop  offset="0.5582" style="stop-color:#E15D6A"/>
		<stop  offset="0.6542" style="stop-color:#C06374"/>
		<stop  offset="0.7874" style="stop-color:#8B6884"/>
		<stop  offset="0.9512" style="stop-color:#2C6A97"/>
		<stop  offset="0.9641" style="stop-color:#1A6A99"/>
	</radialGradient>
	<path class="st7" d="M38.7,18.8c1.6,0,3.1,0.1,4.5,0.4c1.3,0.3,2.5,0.8,3.5,1.4c1,0.7,1.7,1.5,2.2,2.6c0.5,1.1,0.8,2.4,0.8,4
		c0,1.7-0.4,3.2-1.2,4.3c-0.8,1.2-1.9,2.1-3.5,2.8c2.1,0.6,3.7,1.7,4.7,3.2c1,1.5,1.6,3.4,1.6,5.5c0,1.7-0.3,3.2-1,4.5
		c-0.7,1.3-1.6,2.3-2.7,3.1c-1.1,0.8-2.4,1.4-3.9,1.8c-1.5,0.4-3,0.6-4.5,0.6H22.6V18.8H38.7z M37.8,32.7c1.3,0,2.5-0.3,3.3-1
		c0.9-0.6,1.3-1.7,1.3-3.1c0-0.8-0.1-1.5-0.4-2c-0.3-0.5-0.7-0.9-1.2-1.2c-0.5-0.3-1-0.5-1.7-0.6c-0.6-0.1-1.3-0.2-2-0.2h-7.1v8
		H37.8z M38.2,47.3c0.7,0,1.4-0.1,2.1-0.2c0.7-0.1,1.3-0.4,1.8-0.7c0.5-0.3,0.9-0.8,1.2-1.4c0.3-0.6,0.5-1.3,0.5-2.2
		c0-1.8-0.5-3-1.5-3.8c-1-0.8-2.3-1.1-3.9-1.1h-8.2v9.4H38.2z"/>
	<radialGradient id="SVGID_6_" cx="170.0652" cy="91.2562" r="162.5356" gradientUnits="userSpaceOnUse">
		<stop  offset="0.1317" style="stop-color:#FFD540"/>
		<stop  offset="0.509" style="stop-color:#F15B67"/>
		<stop  offset="0.5582" style="stop-color:#E15D6A"/>
		<stop  offset="0.6542" style="stop-color:#C06374"/>
		<stop  offset="0.7874" style="stop-color:#8B6884"/>
		<stop  offset="0.9512" style="stop-color:#2C6A97"/>
		<stop  offset="0.9641" style="stop-color:#1A6A99"/>
	</radialGradient>
	<path class="st8" d="M77.5,18.8v6.4H60.5v7.4h15.6v5.9H60.5v8.4h17.5v6.4h-25V18.8H77.5z"/>
	<radialGradient id="SVGID_7_" cx="170.0651" cy="91.2562" r="162.5354" gradientUnits="userSpaceOnUse">
		<stop  offset="0.1317" style="stop-color:#FFD540"/>
		<stop  offset="0.509" style="stop-color:#F15B67"/>
		<stop  offset="0.5582" style="stop-color:#E15D6A"/>
		<stop  offset="0.6542" style="stop-color:#C06374"/>
		<stop  offset="0.7874" style="stop-color:#8B6884"/>
		<stop  offset="0.9512" style="stop-color:#2C6A97"/>
		<stop  offset="0.9641" style="stop-color:#1A6A99"/>
	</radialGradient>
	<path class="st9" d="M87.1,18.8v28h15.7v6.4H79.5V18.8H87.1z"/>
	<radialGradient id="SVGID_8_" cx="170.0654" cy="91.2562" r="162.5359" gradientUnits="userSpaceOnUse">
		<stop  offset="0.1317" style="stop-color:#FFD540"/>
		<stop  offset="0.509" style="stop-color:#F15B67"/>
		<stop  offset="0.5582" style="stop-color:#E15D6A"/>
		<stop  offset="0.6542" style="stop-color:#C06374"/>
		<stop  offset="0.7874" style="stop-color:#8B6884"/>
		<stop  offset="0.9512" style="stop-color:#2C6A97"/>
		<stop  offset="0.9641" style="stop-color:#1A6A99"/>
	</radialGradient>
	<path class="st10" d="M111.7,18.8v28h15.7v6.4h-23.3V18.8H111.7z"/>
	<radialGradient id="SVGID_9_" cx="170.0658" cy="91.2562" r="162.537" gradientUnits="userSpaceOnUse">
		<stop  offset="0.1317" style="stop-color:#FFD340"/>
		<stop  offset="0.509" style="stop-color:#F15B67"/>
		<stop  offset="0.5582" style="stop-color:#E15D6A"/>
		<stop  offset="0.6542" style="stop-color:#C06374"/>
		<stop  offset="0.7874" style="stop-color:#8B6884"/>
		<stop  offset="0.9512" style="stop-color:#2C6A97"/>
		<stop  offset="0.9641" style="stop-color:#1A6A99"/>
	</radialGradient>
	<path class="st11" d="M153.4,18.8v6.4h-17.1v7.4h15.6v5.9h-15.6v8.4h17.5v6.4h-25V18.8H153.4z"/>
	<radialGradient id="SVGID_10_" cx="169.6396" cy="91.6815" r="117.4487" gradientUnits="userSpaceOnUse">
		<stop  offset="0.3174" style="stop-color:#FFD540"/>
		<stop  offset="0.3557" style="stop-color:#FFC54D"/>
		<stop  offset="0.4647" style="stop-color:#F79960"/>
		<stop  offset="0.5573" style="stop-color:#F47A66"/>
		<stop  offset="0.6288" style="stop-color:#F16466"/>
		<stop  offset="0.6707" style="stop-color:#F15B67"/>
		<stop  offset="0.8862" style="stop-color:#776989"/>
		<stop  offset="1" style="stop-color:#1A6A99"/>
	</radialGradient>
	<path class="st12" d="M183.1,18.8h8.5l7,13.6l6.9-13.6h8.4L202.2,40v13.2h-7.6V39.8L183.1,18.8z"/>
	<radialGradient id="SVGID_11_" cx="169.6394" cy="91.6815" r="117.4484" gradientUnits="userSpaceOnUse">
		<stop  offset="0.3174" style="stop-color:#FFD540"/>
		<stop  offset="0.3557" style="stop-color:#FFC54D"/>
		<stop  offset="0.4647" style="stop-color:#F79960"/>
		<stop  offset="0.5573" style="stop-color:#F47A66"/>
		<stop  offset="0.6288" style="stop-color:#F16466"/>
		<stop  offset="0.6707" style="stop-color:#F15B67"/>
		<stop  offset="0.8862" style="stop-color:#776989"/>
		<stop  offset="1" style="stop-color:#1A6A99"/>
	</radialGradient>
	<path class="st13" d="M233.4,18.8c1.5,0,2.9,0.2,4.2,0.7c1.2,0.5,2.3,1.2,3.2,2c0.9,0.9,1.6,1.9,2,3c0.5,1.1,0.7,2.4,0.7,3.7
		c0,2-0.4,3.8-1.3,5.2c-0.9,1.5-2.2,2.6-4.2,3.4V37c0.9,0.3,1.7,0.6,2.3,1.2c0.6,0.5,1.1,1.2,1.5,1.9c0.4,0.7,0.7,1.5,0.8,2.4
		c0.2,0.9,0.3,1.7,0.4,2.6c0,0.5,0.1,1.2,0.1,1.9c0,0.7,0.1,1.5,0.2,2.3c0.1,0.8,0.2,1.5,0.4,2.2c0.2,0.7,0.4,1.3,0.8,1.8h-7.6
		c-0.4-1.1-0.7-2.4-0.8-3.9c-0.1-1.5-0.2-3-0.4-4.3c-0.3-1.8-0.8-3.1-1.6-3.9c-0.8-0.8-2.2-1.3-4.1-1.3h-7.6v13.4h-7.6V18.8H233.4z
		 M230.7,34.4c1.7,0,3-0.4,3.9-1.2c0.9-0.8,1.3-2,1.3-3.8c0-1.7-0.4-2.9-1.3-3.6c-0.9-0.8-2.2-1.1-3.9-1.1h-8.3v9.7H230.7z"/>
	<radialGradient id="SVGID_12_" cx="169.6398" cy="91.6815" r="117.4477" gradientUnits="userSpaceOnUse">
		<stop  offset="0.3174" style="stop-color:#FFD540"/>
		<stop  offset="0.3557" style="stop-color:#FFC54D"/>
		<stop  offset="0.4647" style="stop-color:#F79960"/>
		<stop  offset="0.5573" style="stop-color:#F47A66"/>
		<stop  offset="0.6288" style="stop-color:#F16466"/>
		<stop  offset="0.6707" style="stop-color:#F15B67"/>
		<stop  offset="0.8862" style="stop-color:#776989"/>
		<stop  offset="1" style="stop-color:#1A6A99"/>
	</radialGradient>
	<path class="st14" d="M270.7,18.8v6.4h-17.1v7.4h15.6v5.9h-15.6v8.4h17.5v6.4h-25V18.8H270.7z"/>
</g>
</svg>
