<?xml version="1.0" encoding="utf-8"?>
<!-- Generator: Adobe Illustrator 19.1.0, SVG Export Plug-In . SVG Version: 6.00 Build 0)  -->
<svg version="1.1" id="Layer_1" xmlns="http://www.w3.org/2000/svg" xmlns:xlink="http://www.w3.org/1999/xlink" x="0px" y="0px"
	 viewBox="-331 154 296.2 254" style="enable-background:new -331 154 296.2 254;" xml:space="preserve">
<style type="text/css">
	.st0{clip-path:url(#SVGID_2_);fill:#08241C;}
	.st1{clip-path:url(#SVGID_2_);}
	.st2{fill:#08241C;}
	.st3{clip-path:url(#SVGID_2_);fill:none;}
	.st4{clip-path:url(#SVGID_2_);fill:#A0D2D8;}
	.st5{clip-path:url(#SVGID_2_);fill:#3B4C12;}
	.st6{clip-path:url(#SVGID_2_);fill:none;stroke:#3B4C12;stroke-width:2;stroke-miterlimit:10;}
	.st7{fill:#7D9D3E;}
</style>
<g>
	<defs>
		<rect id="SVGID_1_" x="-308.3" y="173.1" width="248.9" height="210.8"/>
	</defs>
	<clipPath id="SVGID_2_">
		<use xlink:href="#SVGID_1_"  style="overflow:visible;"/>
	</clipPath>
	<path class="st0" d="M-59.5,310.8c-6-0.1-13.6-0.6-21.6-3.6c-1.4-0.4-2.8-1-4.1-1.6c-42.5-20.5-54.2,16.2-76.2,13.2
		c-42.5-5.9-51,24.5-73.3-1.5c-15.8-18.4-38.7-21.5-73.9-8.1v30.9h17.6c2.5-7.8,6.9-14.6,12.3-19.1c6-5,14.6-7.5,21.4-6.3l0.3,0.1
		c7.8,1.6,12.5,9.1,12.4,15.1c-0.1,4-1,7.5-2.7,10.2h187.8V310.8z"/>
	<path class="st0" d="M-234.4,349.2v6.4h-16.9v7.4h15.4v5.9h-15.4v8.5h17.3v6.4h-24.9v-34.7h24.5V349.2z"/>
	<path class="st0" d="M-197.4,355.6v-6.4h28.5v6.4h-10.4V384h-7.7v-28.3h-10.4V355.6z"/>
	<path class="st0" d="M-156.6,349.2V384h-7.6v-34.7L-156.6,349.2L-156.6,349.2z"/>
	<path class="st0" d="M-139.7,384l-11.3-34.8h7.8l7.7,24.4h0.1l7.8-24.4h7.9l-11.4,34.8H-139.7z"/>
	<path class="st0" d="M-100.5,349.2l13,34.7h-7.9l-2.6-7.7h-13l-2.7,7.7h-7.7l13.1-34.7H-100.5z M-100.1,370.5l-4.4-12.7h-0.1
		l-4.5,12.7H-100.1z"/>
	<path class="st0" d="M-74.9,349.2v28.3h15.5v6.4h-23.1v-34.7H-74.9z"/>
	<g class="st1">
		<path class="st2" d="M-292.1,173.1c1.6,0,3.1,0.1,4.5,0.4c1.3,0.3,2.5,0.8,3.5,1.4c1,0.7,1.7,1.5,2.2,2.6s0.8,2.4,0.8,4
			c0,1.7-0.4,3.2-1.2,4.3c-0.8,1.2-1.9,2.1-3.5,2.8c2.1,0.6,3.7,1.7,4.7,3.2s1.6,3.4,1.6,5.5c0,1.7-0.3,3.2-1,4.5s-1.6,2.3-2.7,3.1
			c-1.1,0.8-2.4,1.4-3.9,1.8c-1.5,0.4-3,0.6-4.5,0.6h-16.7v-34.2H-292.1z M-293.1,187c1.3,0,2.5-0.3,3.3-1c0.9-0.6,1.3-1.7,1.3-3.1
			c0-0.8-0.1-1.5-0.4-2c-0.3-0.5-0.7-0.9-1.2-1.2s-1-0.5-1.7-0.6c-0.6-0.1-1.3-0.2-2-0.2h-7.1v8h7.8V187z M-292.7,201.6
			c0.7,0,1.4-0.1,2.1-0.2c0.7-0.1,1.3-0.4,1.8-0.7s0.9-0.8,1.2-1.4c0.3-0.6,0.5-1.3,0.5-2.2c0-1.8-0.5-3-1.5-3.8
			c-1-0.8-2.3-1.1-3.9-1.1h-8.2v9.4H-292.7z"/>
		<path class="st2" d="M-253.3,173.1v6.4h-17.1v7.4h15.6v5.9h-15.6v8.4h17.5v6.4H-278v-34.5H-253.3z"/>
		<path class="st2" d="M-243.8,173.1v28h15.7v6.4h-23.2v-34.4H-243.8z"/>
		<path class="st2" d="M-219.1,173.1v28h15.7v6.4h-23.3v-34.4H-219.1z"/>
		<path class="st2" d="M-177.4,173.1v6.4h-17.1v7.4h15.6v5.9h-15.6v8.4h17.5v6.4h-25v-34.5H-177.4z"/>
		<path class="st2" d="M-147.7,173.1h8.5l7,13.6l6.9-13.6h8.4l-11.7,21.2v13.2h-7.6v-13.4L-147.7,173.1z"/>
		<path class="st2" d="M-97.4,173.1c1.5,0,2.9,0.2,4.2,0.7c1.2,0.5,2.3,1.2,3.2,2c0.9,0.9,1.6,1.9,2,3c0.5,1.1,0.7,2.4,0.7,3.7
			c0,2-0.4,3.8-1.3,5.2c-0.9,1.5-2.2,2.6-4.2,3.4v0.1c0.9,0.3,1.7,0.6,2.3,1.2c0.6,0.5,1.1,1.2,1.5,1.9s0.7,1.5,0.8,2.4
			c0.2,0.9,0.3,1.7,0.4,2.6c0,0.5,0.1,1.2,0.1,1.9c0,0.7,0.1,1.5,0.2,2.3c0.1,0.8,0.2,1.5,0.4,2.2c0.2,0.7,0.4,1.3,0.8,1.8h-7.6
			c-0.4-1.1-0.7-2.4-0.8-3.9s-0.2-3-0.4-4.3c-0.3-1.8-0.8-3.1-1.6-3.9c-0.8-0.8-2.2-1.3-4.1-1.3h-7.6v13.4h-7.6v-34.4H-97.4z
			 M-100.1,188.6c1.7,0,3-0.4,3.9-1.2c0.9-0.8,1.3-2,1.3-3.8c0-1.7-0.4-2.9-1.3-3.6c-0.9-0.8-2.2-1.1-3.9-1.1h-8.3v9.7H-100.1z"/>
		<path class="st2" d="M-60.2,173.1v6.4h-17.1v7.4h15.6v5.9h-15.6v8.4h17.5v6.4h-25v-34.5H-60.2z"/>
	</g>
	<path class="st3" d="M-71.5,305.5c2.2-0.6,4.2-1.6,6-2.9c2.1-1.6,3.7-3.8,5-6.6s1.9-6.4,1.9-10.8v-11.7h-17c0,3-0.1,5.5-0.2,7.4
		c-0.2,2-0.4,3.5-0.8,4.7c-0.4,1.2-0.9,2-1.6,2.5c-0.7,0.5-1.6,0.7-2.7,0.7c-1.3,0-2.4-0.3-3.2-1c-0.8-0.6-1.4-1.8-1.8-3.4
		c-0.4-1.6-0.7-3.8-0.8-6.6c-0.1-2.8-0.2-6.3-0.2-10.5c0-4.2,0.1-7.7,0.2-10.5c0.1-2.8,0.4-5,0.8-6.6c0.4-1.6,1-2.8,1.8-3.4
		c0.8-0.6,1.8-1,3.2-1c1.7,0,2.9,0.6,3.7,1.9s1.1,3.7,1.1,7.3v3.5h17v-4c0-3-0.4-5.8-1.2-8.2c-0.2-0.5-0.3-0.9-0.5-1.3
		c-9.4-6.4-16.6-8.9-27.2-9.7c-1.6,0.3-3.1,0.6-4.4,1.1c-3.1,1.1-5.6,3-7.5,5.6s-3.2,5.9-4,10.1c-0.8,4.2-1.2,9.2-1.2,15.2
		c0,5.9,0.3,10.8,1,15c0.5,3.3,1.4,10.7,2.7,14.8c4.9,0.9,10.2,2.5,16.2,5.3C-80.7,304.5-76.1,305.3-71.5,305.5z"/>
	<path class="st3" d="M-130.3,301.9c5.1-2.8,10.8-5.2,17.6-5.8v-64.4c-7-0.1-11.9,0.4-17.6,1.7V301.9z"/>
	<path class="st3" d="M-144.8,271.7c-2.1-1.7-4.5-3.2-6.9-4.3c-2.5-1.1-4.8-2.2-6.9-3.2c-2.1-1.1-3.9-2.3-5.4-3.7
		c-1.4-1.4-2.1-3.4-2.1-5.8c0-1.7,0.4-3.2,1.3-4.6c0.9-1.4,2.3-2,4.2-2c1.7,0,3,0.8,3.8,2.4s1.2,3.5,1.2,5.7v1.8h16.5
		c0-8.1-1.7-13.9-5.2-17.6c-3.4-3.7-9-5.5-16.7-5.5c-7.4,0-13,2-16.7,6s-5.5,9.8-5.5,17.4c0,4.4,0.7,8,2,10.7
		c1.4,2.7,3.1,4.9,5.1,6.6c2,1.7,4.3,3,6.7,4.1c2.4,1.1,4.6,2.1,6.7,3.1c2.1,1,3.8,2.2,5.1,3.7c1.4,1.4,2,3.4,2,5.8
		c0,2-0.5,3.7-1.5,5.1c-1,1.4-2.4,2.1-4.2,2.1c-1.7,0-3.1-0.6-4.2-1.9c-1.1-1.3-1.6-3.6-1.6-6.8V289h-17v11.4c0,3.9,0.5,7.2,1.5,9.9
		c0.7,1.8,1.6,3.4,2.7,4.7c5.3-0.6,11.4-0.6,18.3,0.4c8,1.1,14.6-3,21.8-7.8c1.5-5.8,2.3-13.1,2.3-18c0-4.6-0.7-8.2-2.1-11.1
		C-140.9,275.8-142.6,273.5-144.8,271.7z"/>
	<path class="st3" d="M-208.2,222v78.3c0,3.5-0.5,5.9-1.4,7.1c-0.9,1.2-2.2,1.8-3.9,1.8c-1.6,0-2.9-0.6-3.9-1.8
		c-0.9-1.2-1.4-3.5-1.4-7.1V223c-6.1,1-11.8,2.4-17.6,4.1V300c0,5.1,0.5,9.3,1.5,12.7c0.2,0.6,0.4,1.2,0.6,1.8
		c14.5,16.5,23.2,9.2,39.6,3.9c1-1.6,1.9-3.5,2.6-5.7c1-3.4,1.5-7.6,1.5-12.7v-75.1C-195.1,223-200.5,221.8-208.2,222z"/>
	<path class="st3" d="M-245.2,304.7l0.8-75.3c-7.9,2.2-16.3,4.3-26,5.3l-7.1,41.6h-0.2l-7.2-41.4c-5.6-0.4-16.9-0.9-25.3,1.7
		l-5.7,72.2c7.7-3.3,14.9-5.8,21.6-7.6l0.8-49.3h0.2l8.2,47.2c5.5-1,10.5-1.5,15.3-1.4l7.9-45.8h0.2v46.6
		C-255.6,299.4-250.1,301.5-245.2,304.7z"/>
	<rect x="-308.6" y="208.5" class="st3" width="249.1" height="131.6"/>
	<rect x="-308.6" y="208.5" class="st3" width="249.1" height="131.6"/>
	<rect x="-308.6" y="208.5" class="st3" width="249.1" height="131.6"/>
	<rect x="-308.6" y="208.5" class="st3" width="249.1" height="131.6"/>
	<rect x="-308.6" y="208.5" class="st3" width="249.1" height="131.6"/>
	<rect x="-308.6" y="208.5" class="st3" width="249.1" height="131.6"/>
	<rect x="-308.6" y="208.5" class="st3" width="249.1" height="131.6"/>
	<path class="st3" d="M-234.3,314.4c14.5,16.5,23.2,9.2,39.6,3.9c1-1.6,1.9-3.5,2.6-5.7c1-3.4,1.5-7.6,1.5-12.7v-75.1
		c-4.5-1.9-9.9-3.2-17.6-2.9v78.3c0,3.5-0.5,5.9-1.4,7.1c-0.9,1.2-2.2,1.8-3.9,1.8c-1.6,0-2.9-0.6-3.9-1.8c-0.9-1.2-1.4-3.5-1.4-7.1
		v-77.3c-6.1,1-11.8,2.4-17.6,4.1v72.9c0,5.1,0.5,9.3,1.5,12.7C-234.7,313.2-234.5,313.8-234.3,314.4z"/>
	<path class="st3" d="M-234.7,318.3c22.3,26,30.8-4.4,73.3,1.5c22,3,33.7-33.7,76.2-13.2c1.4,0.7,2.8,1.2,4.1,1.6
		c-1.3-0.5-2.7-1.1-4-1.7c-42.5-20.5-54.2,16.2-76.2,13.2C-203.8,313.8-212.3,344.2-234.7,318.3c-15.7-18.5-38.6-21.6-73.9-8.2v0.1
		C-273.4,296.8-250.5,299.9-234.7,318.3z"/>
	<path class="st4" d="M-124.1,232.2c-9.2,1.2-15.8,3.8-24.8,4.7c0.1,0,0.1,0.1,0.2,0.1c6.8-0.7,12.2-2.4,18.5-3.6v0
		C-128.2,232.8-126.2,232.4-124.1,232.2z"/>
	<path class="st4" d="M-87.5,235.1c-4.5-1.3-9.8-2.4-17.8-3.1c-6.9-0.7-12.4-0.5-17.2,0c3-0.3,6.1-0.4,9.8-0.4v0.1
		c2.3,0,4.7,0.2,7.4,0.4c7.7,0.7,12.9,1.7,17.3,3c0,0,0,0,0,0C-87.8,235.1-87.6,235.1-87.5,235.1z"/>
	<path class="st3" d="M-92.4,236.2c-3.1,1.1-5.6,3-7.5,5.6c-1.9,2.6-3.2,5.9-4,10.1c-0.8,4.2-1.2,9.2-1.2,15.2c0,5.9,0.3,10.8,1,15
		c0.5,3.3,1.4,10.7,2.7,14.8c4.9,0.9,10.2,2.5,16.2,5.3c4.5,2.1,9.1,3,13.7,3.1c2.2-0.6,4.2-1.6,6-2.9c2.1-1.6,3.7-3.8,5-6.6
		c0.4-0.9,0.7-1.8,1-2.8v-19.7h-16.1c0,3-0.1,5.5-0.2,7.4c-0.2,2-0.4,3.5-0.8,4.7c-0.4,1.2-0.9,2-1.6,2.5s-1.6,0.7-2.7,0.7
		c-1.3,0-2.4-0.3-3.2-1c-0.8-0.6-1.4-1.8-1.8-3.4c-0.4-1.6-0.7-3.8-0.8-6.6c-0.1-2.8-0.2-6.3-0.2-10.5c0-4.2,0.1-7.7,0.2-10.5
		c0.1-2.8,0.4-5,0.8-6.6c0.4-1.6,1-2.8,1.8-3.4c0.8-0.6,1.8-1,3.2-1c1.7,0,2.9,0.6,3.7,1.9s1.1,3.7,1.1,7.3v3.5h16.6v-8.9
		c-0.2-1.2-0.5-2.3-0.8-3.3c-0.2-0.5-0.3-0.9-0.5-1.3c0,0,0,0,0,0c-13.6-4.1-19-7.3-27.2-9.7C-89.6,235.4-91.1,235.7-92.4,236.2z"/>
	<path class="st3" d="M-263.5,220.7c11.2-5.5,33.4-8.7,44.4-8.3c16.9,0.6,16,8.5,34.1,2.6c17.9-5.8,15.4-4.7,39.7,2.2
		c12.2,3.4,30.4-12.2,46.8-4.4c6.1,2.9,27.7-1.7,39,8.4v-12.7h-249.1v9.7C-294.6,217.6-273.4,225.5-263.5,220.7z"/>
	<path class="st3" d="M-160.2,237.1c-3.3-0.2-6.1-0.8-8.6-1.5c-3.6,1-6.6,2.6-8.9,5.1c-3.7,4-5.5,9.8-5.5,17.4c0,4.4,0.7,8,2,10.7
		c1.4,2.7,3.1,4.9,5.1,6.6c2,1.7,4.3,3,6.7,4.1c2.4,1,4.6,2.1,6.7,3.1c2.1,1,3.8,2.2,5.1,3.7c1.4,1.4,2,3.4,2,5.8
		c0,2-0.5,3.7-1.5,5.1c-1,1.4-2.4,2.1-4.2,2.1c-1.7,0-3.1-0.6-4.2-1.9c-1.1-1.3-1.6-3.6-1.6-6.8V289h-17v11.4c0,3.9,0.5,7.2,1.5,9.9
		c0.7,1.8,1.6,3.4,2.7,4.7c5.3-0.6,11.4-0.6,18.3,0.4c8,1.1,14.6-3,21.8-7.8c1.5-5.8,2.3-13.1,2.3-18c0-4.6-0.7-8.2-2.1-11.1
		c-1.3-2.8-3-5.1-5.2-6.9c-2.1-1.7-4.5-3.2-6.9-4.3c-2.5-1.1-4.8-2.2-6.9-3.2c-2.1-1-3.9-2.3-5.4-3.7c-1.4-1.4-2.1-3.4-2.1-5.8
		c0-1.7,0.4-3.2,1.3-4.6s2.3-2.1,4.2-2.1c1.7,0,3,0.8,3.8,2.4c0.8,1.6,1.2,3.5,1.2,5.7v1.8h16.5c0-8.1-1.7-13.9-5.2-17.6
		c-1.2-1.3-2.7-2.4-4.5-3.2C-152.2,237.3-155.9,237.4-160.2,237.1z"/>
	<path class="st3" d="M-130.3,233.3v68.5c5.1-2.8,10.8-5.2,17.6-5.8v-64.3C-119.8,231.5-125.3,232.3-130.3,233.3z"/>
	<path class="st5" d="M-98.5,212.8c-16.4-7.8-34.6,7.8-46.8,4.4c-24.3-6.9-21.8-8-39.7-2.2c-18.1,5.9-17.2-2-34.1-2.6
		c-11-0.4-33.2,2.8-44.4,8.3c-9.9,4.8-41.1-4.1-55.1-3.5v2.9c14-0.4,40.6,9.4,55.1,3.7c10.9-4.4,33.4-6.8,44.4-6.5
		c16.9,0.4,16,5.7,34.1,1.7c17.9-3.9,15.4-3.1,39.7,1.5c12.2,2.3,30.4-8.1,46.8-2.9c6.1,1.9,27.7-2.1,39,4.6v-0.9
		C-70.8,211.1-92.4,215.7-98.5,212.8z"/>
	<path class="st4" d="M-208.2,221.8c-5.6,0.2-10.8,0.9-15.9,2c5.1-0.7,10.3-1.2,15.9-1.3c6.4-0.1,11.3,0.4,15.3,1.3
		C-196.9,222.4-201.8,221.6-208.2,221.8z"/>
	<path class="st3" d="M-293.5,251.8h0.2l8.2,47.2c5.5-1,10.5-1.5,15.3-1.4l7.9-45.8h0.2v46.6c6.1,0.9,11.6,3,16.5,6.2l0.8-75.3
		c-7.9,2.2-16.3,4.3-26,5.3l-7.1,41.6h-0.2l-7.2-41.4c-5.3-0.4-15.5-0.8-23.7,1.2v69.7c5-1.9,9.8-3.4,14.3-4.7L-293.5,251.8z"/>
	<path class="st3" d="M-257,314.8l-0.3-0.1c-6.8-1.2-15.4,1.3-21.4,6.3c-5.4,4.5-9.8,11.3-12.3,19.1h43.7c1.7-2.7,2.6-6.2,2.7-10.2
		C-244.5,323.9-249.2,316.4-257,314.8z"/>
	<path class="st5" d="M-76.1,254.8c0-3.6-0.3-6-1.1-7.3s-2-1.9-3.7-1.9c-1.4,0-2.4,0.4-3.2,1c-0.8,0.6-1.4,1.8-1.8,3.4
		c-0.4,1.6-0.7,3.8-0.8,6.6c-0.1,2.8-0.2,6.3-0.2,10.5c0,4.2,0.1,7.7,0.2,10.5c0.1,2.8,0.4,5,0.8,6.6c0.4,1.6,1,2.8,1.8,3.4
		c0.8,0.7,1.9,1,3.2,1c1.1,0,2-0.2,2.7-0.7s1.2-1.3,1.6-2.5c0.4-1.2,0.6-2.7,0.8-4.7c0.1-1.9,0.2-4.4,0.2-7.4h16.1v-15h-16.6V254.8z
		"/>
	<path class="st5" d="M-122.5,232c-0.5,0.1-1,0.1-1.5,0.2C-123.5,232.1-123,232-122.5,232z"/>
	<path class="st5" d="M-61.2,241.7c0.7,1.7,1.4,3.3,1.7,3.4V238c-0.5-0.1-1.1-0.2-1.6-0.3c0.1,0,0.2,0.1,0.3,0.1
		c-13.6-2.7-19-4.9-27.2-6.5c0,0,0,0,0,0c0.2,0,0.4,0,0.5,0c-4.5-0.9-9.8-1.6-17.8-2.1c-6.9-0.5-12.4-0.4-17.2,0
		c3-0.2,6.1-0.3,9.8-0.3v0c-7.1-0.1-12.6,0.4-17.6,1.1v0c2.1-0.3,4.1-0.6,6.2-0.8c-9.2,0.8-15.8,2.5-24.8,3.1c0.1,0,0.1,0,0.2,0.1
		c-3.4,0.2-7.1,0.3-11.4,0.1c-3.3-0.2-6.1-0.5-8.6-1c0.1,0,0.1,0,0.2,0c-10.1-1.9-15.1-5.8-24.2-7.8c-4-1.4-8.9-2.2-15.3-2
		c-5.6,0.2-10.8,0.9-15.9,2c-17.6,2.5-33.3,7.5-57.2,7.5c-0.4,0-25.8-1.3-37.3,0.6v4c8.7-2.2,25.4-1.6,33.2-1.2c0.2,0,0.4,0,0.5,0
		l7.2,41.4h0.2l7.1-41.6c9.7-1,18.1-1.1,26-3.3l-0.8,73.3c-4.9-3.2-10.4-5.3-16.5-6.2v-46.6h-0.2l-7.9,45.8
		c-4.8-0.1-9.8,0.4-15.3,1.4l-8.2-47.2h-0.2l-0.8,49.3c-4.5,1.2-9.3,2.8-14.3,4.7v4.4c35.3-13.4,58.2-10.3,74,8.1
		c22.3,26,30.8-4.4,73.3,1.5c22,3,33.7-33.7,76.2-13.2c1.4,0.7,2.7,1.2,4,1.7c7.9,2.9,15.6,3.4,21.6,3.6v-2.5V293
		c-0.3,1-0.6,2-1,2.8c-1.3,2.8-2.9,5-5,6.6c-1.8,1.3-3.8,2.3-6,2.9c-4.6-0.1-9.2-1-13.7-3.1c-6-2.8-11.3-4.4-16.2-5.3
		c-1.3-4.1-2.2-11.5-2.7-14.8c-0.7-4.2-1-9.1-1-15c0-6,0.4-11,1.2-15.2c0.8-4.2,2.1-7.5,4-10.1c1.9-2.6,4.4-4.5,7.5-5.6
		c1.3-0.5,2.8-0.8,4.4-1.1c0,0,0,0,0,0C-79.8,237.4-75.8,238.4-61.2,241.7z M-190.6,299.9c0,5.1-0.5,9.3-1.5,12.7
		c-0.7,2.2-1.6,4.1-2.6,5.7c-16.4,5.3-25.1,12.6-39.6-3.9c-0.2-0.6-0.4-1.2-0.6-1.8c-1-3.4-1.5-7.6-1.5-12.7V230
		c5.8-1.7,11.5-3.1,17.6-4.1v74.3c0,3.6,0.5,5.9,1.4,7.1c1,1.2,2.3,1.8,3.9,1.8c1.7,0,3-0.6,3.9-1.8c0.9-1.2,1.4-3.6,1.4-7.1v-74.3
		c7.7-0.3,13.1,1,17.6,2.9V299.9z M-139.8,307.6c-7.2,4.8-13.8,8.9-21.8,7.8c-6.9-1-13-1-18.3-0.4c-1.1-1.3-2-2.9-2.7-4.7
		c-1-2.7-1.5-6-1.5-9.9V289h17v1.6c0,3.2,0.5,5.5,1.6,6.8c1.1,1.3,2.5,1.9,4.2,1.9c1.8,0,3.2-0.7,4.2-2.1c1-1.4,1.5-3.1,1.5-5.1
		c0-2.4-0.6-4.4-2-5.8c-1.3-1.5-3-2.7-5.1-3.7c-2.1-1-4.3-2.1-6.7-3.1c-2.4-1.1-4.7-2.4-6.7-4.1c-2-1.7-3.7-3.9-5.1-6.6
		c-1.3-2.7-2-6.3-2-10.7c0-7.6,1.8-13.4,5.5-17.4c2.3-2.5,5.3-4.2,9.1-5.1c-0.1,0-0.1,0-0.2,0.1c2.5,0.7,5.3,1.2,8.6,1.5
		c4.3,0.3,8,0.2,11.4-0.1c1.8,0.8,3.3,1.9,4.5,3.2c3.5,3.7,5.2,9.5,5.2,17.6h-16.5V256c0-2.2-0.4-4.1-1.2-5.7
		c-0.8-1.6-2.1-2.4-3.8-2.4c-1.9,0-3.3,0.7-4.2,2.1s-1.3,2.9-1.3,4.6c0,2.4,0.7,4.4,2.1,5.8c1.5,1.4,3.3,2.7,5.4,3.7
		c2.1,1,4.4,2.1,6.9,3.2c2.4,1.1,4.8,2.6,6.9,4.3c2.2,1.8,3.9,4.1,5.2,6.9c1.4,2.9,2.1,6.5,2.1,11.1
		C-137.5,294.5-138.3,301.8-139.8,307.6z M-112.7,296c-6.8,0.6-12.5,3-17.6,5.8v-67.5c5-1,10.5-1.8,17.6-1.7V296z M-62.2,239.2
		c-0.4-0.8-0.8-1.6-0.9-1.6C-63,237.6-62.6,238.3-62.2,239.2z"/>
	<path class="st0" d="M-275.1,355.6h6.4c0.8,0,1.9-0.3,2.3-0.8c0.6-0.6,0.9-2.2,0.9-2.7c0-1.3-1.2-2.5-2.7-2.5h-5.3h-13.8h-6.5
		c-0.8,0-1.5,0.3-2,0.8c-0.5,0.4-1.1,1.5-1.1,2.4c0,1.3,0.7,2.9,2.5,2.9h5.4L-275.1,355.6z"/>
	<line class="st6" x1="-308" y1="231.9" x2="-308" y2="307.2"/>
	<line class="st6" x1="-60" y1="238.9" x2="-60" y2="311.2"/>
</g>
<path class="st2" d="M-221,375.4c0.4,0.8,1,1.5,1.7,2s1.5,0.9,2.5,1.1c0.9,0.2,1.9,0.4,2.9,0.4c0.7,0,1.4-0.1,2.2-0.2
	c0.8-0.1,1.5-0.3,2.2-0.7c0.7-0.3,1.2-0.8,1.7-1.3c0.5-0.6,0.7-1.3,0.7-2.2s-0.3-1.7-0.9-2.3c-0.6-0.6-1.4-1.1-2.4-1.5
	c-1-0.4-2.1-0.7-3.3-1c-1.2-0.3-2.5-0.6-3.7-1c-1.3-0.3-2.6-0.7-3.8-1.2c-1.2-0.5-2.3-1.1-3.3-1.8c-1-0.7-1.8-1.7-2.4-2.8
	s-0.9-2.5-0.9-4.1c0-1.8,0.4-3.3,1.1-4.6c0.8-1.3,1.8-2.4,3-3.3c1.2-0.9,2.6-1.5,4.2-1.9c1.6-0.4,3.1-0.6,4.7-0.6
	c1.8,0,3.6,0.2,5.2,0.6c1.7,0.4,3.2,1.1,4.5,2c1.3,0.9,2.3,2.1,3.1,3.5c0.8,1.4,1.1,3.1,1.1,5.1h-7.4c-0.1-1-0.3-1.9-0.7-2.6
	s-0.9-1.2-1.5-1.6c-0.6-0.4-1.3-0.7-2.1-0.8c-0.8-0.2-1.7-0.2-2.6-0.2c-0.6,0-1.2,0.1-1.8,0.2c-0.6,0.1-1.2,0.4-1.7,0.7
	c-0.5,0.3-0.9,0.7-1.2,1.2c-0.3,0.5-0.5,1.1-0.5,1.9c0,0.7,0.1,1.2,0.4,1.7c0.3,0.4,0.8,0.8,1.5,1.2c0.8,0.4,1.8,0.7,3.2,1.1
	c1.3,0.4,3.1,0.8,5.3,1.4c0.6,0.1,1.5,0.4,2.7,0.7c1.2,0.3,2.3,0.9,3.4,1.6c1.1,0.7,2.1,1.7,2.9,3c0.8,1.3,1.2,2.8,1.2,4.8
	c0,1.6-0.3,3.1-0.9,4.4c-0.6,1.4-1.5,2.5-2.8,3.5c-1.2,1-2.7,1.8-4.5,2.3c-1.8,0.6-3.9,0.8-6.2,0.8c-1.9,0-3.8-0.2-5.6-0.7
	c-1.8-0.5-3.4-1.2-4.8-2.2c-1.4-1-2.5-2.3-3.3-3.8c-0.8-1.6-1.2-3.4-1.2-5.5h7.4C-221.6,373.6-221.4,374.6-221,375.4z"/>
<path class="st2" d="M-258.2,320.5c-4.6-0.9-11.7,0.8-16.7,5c-4.5,3.7-8.9,10.2-11.1,18.7c0,0-0.6,2.3-1.5,8
	c-0.9,5.6-1.1,8.7-1.1,8.8c-3,19.2-4.3,21.4-11.1,22.6c-3.3,0.6-4-2.2-2.5-3.2c2.4-1.7,4.5-2.8,4.3-5.3c-0.2-2.5-2.7-4.4-5.6-4.2
	c-1.9,0.2-3.6,1.2-4.7,2.2c-1.6,1.7-2.6,4.4-2.2,7.4c0.3,2.9,2.8,6.5,7.9,7.4c1.3,0.2,3,0.4,4.7,0.1c3.6-0.5,5.9-1.8,8.7-3.7
	c3.5-2.4,7.9-7.9,11.2-16.7c1-2.8,2.2-7.1,2.2-7.2c0,0,0.7-3.2,1.3-6.8s2.2-11.4,2.2-11.4c3-12.4,5.2-15.8,10.6-16.6
	c0.3,0,0.6-0.1,0.9-0.1c1.9-0.2,2.5,0.7,2.7,1c1.4,3.1-5.5,3.6-5.1,9.7c0.1,2.5,2.7,4.4,5.6,4.2c2.2-0.2,4-1.8,4.9-3.1
	c0.9-1.3,2-3.5,2.1-7.5C-250.5,326.6-253.2,321.5-258.2,320.5z"/>
<polygon class="st7" points="-161.4,168.1 -155.7,180.7 -143.4,183.1 -152.1,193.3 -150.3,207.4 -161.4,201.1 -172.5,207.4 
	-170.7,193.3 -179.4,183.1 -167.2,180.7 "/>
</svg>
