<?xml version="1.0" encoding="utf-8"?>
<!-- Generator: Adobe Illustrator 19.1.0, SVG Export Plug-In . SVG Version: 6.00 Build 0)  -->
<svg version="1.1" id="Layer_1" xmlns="http://www.w3.org/2000/svg" xmlns:xlink="http://www.w3.org/1999/xlink" x="0px" y="0px"
	 viewBox="0 0 296.2 254" style="enable-background:new 0 0 296.2 254;" xml:space="preserve">
<style type="text/css">
	.st0{fill:#7D9D3E;}
	.st1{fill:#08241C;}
	.st2{fill:none;}
	.st3{clip-path:url(#SVGID_2_);}
	.st4{fill:#A0D1D7;}
	.st5{clip-path:url(#SVGID_2_);fill:#08241C;}
	.st6{fill:#D1E6E8;}
</style>
<polygon class="st0" points="169.6,14.1 175.3,26.7 187.6,29.1 178.9,39.3 180.7,53.4 169.6,47.1 158.5,53.4 160.3,39.3 151.6,29.1 
	163.8,26.7 "/>
<path class="st1" d="M96.6,195.2v6.4H79.7v7.4h15.4v5.9H79.7v8.5H97v6.4H72.1v-34.7H96.6z"/>
<path class="st1" d="M110,221.4c0.4,0.8,1,1.5,1.7,2c0.7,0.5,1.5,0.9,2.5,1.1c0.9,0.2,1.9,0.4,2.9,0.4c0.7,0,1.4-0.1,2.2-0.2
	c0.8-0.1,1.5-0.3,2.2-0.7c0.7-0.3,1.2-0.8,1.7-1.3c0.5-0.6,0.7-1.3,0.7-2.2c0-0.9-0.3-1.7-0.9-2.3c-0.6-0.6-1.4-1.1-2.4-1.5
	c-1-0.4-2.1-0.7-3.3-1c-1.2-0.3-2.5-0.6-3.7-1c-1.3-0.3-2.6-0.7-3.8-1.2c-1.2-0.5-2.3-1.1-3.3-1.8c-1-0.7-1.8-1.7-2.4-2.8
	c-0.6-1.1-0.9-2.5-0.9-4.1c0-1.8,0.4-3.3,1.1-4.6c0.8-1.3,1.8-2.4,3-3.3c1.2-0.9,2.6-1.5,4.2-1.9c1.6-0.4,3.1-0.6,4.7-0.6
	c1.8,0,3.6,0.2,5.2,0.6c1.7,0.4,3.2,1.1,4.5,2c1.3,0.9,2.3,2.1,3.1,3.5c0.8,1.4,1.1,3.1,1.1,5.1h-7.4c-0.1-1-0.3-1.9-0.7-2.6
	c-0.4-0.7-0.9-1.2-1.5-1.6c-0.6-0.4-1.3-0.7-2.1-0.8c-0.8-0.2-1.7-0.2-2.6-0.2c-0.6,0-1.2,0.1-1.8,0.2c-0.6,0.1-1.2,0.4-1.7,0.7
	c-0.5,0.3-0.9,0.7-1.2,1.2c-0.3,0.5-0.5,1.1-0.5,1.9c0,0.7,0.1,1.2,0.4,1.7c0.3,0.4,0.8,0.8,1.5,1.2c0.8,0.4,1.8,0.7,3.2,1.1
	c1.3,0.4,3.1,0.8,5.3,1.4c0.6,0.1,1.5,0.4,2.7,0.7c1.2,0.3,2.3,0.9,3.4,1.6c1.1,0.7,2.1,1.7,2.9,3c0.8,1.3,1.2,2.8,1.2,4.8
	c0,1.6-0.3,3.1-0.9,4.4c-0.6,1.4-1.5,2.5-2.8,3.5c-1.2,1-2.7,1.8-4.5,2.3c-1.8,0.6-3.9,0.8-6.2,0.8c-1.9,0-3.8-0.2-5.6-0.7
	c-1.8-0.5-3.4-1.2-4.8-2.2c-1.4-1-2.5-2.3-3.3-3.8c-0.8-1.6-1.2-3.4-1.2-5.5h7.4C109.4,219.6,109.6,220.6,110,221.4z"/>
<path class="st1" d="M133.6,201.6v-6.4h28.5v6.4h-10.4V230H144v-28.3H133.6z"/>
<path class="st1" d="M174.4,195.2V230h-7.6v-34.7H174.4z"/>
<path class="st1" d="M191.3,230L180,195.2h7.8l7.7,24.4h0.1l7.8-24.4h7.9L199.9,230H191.3z"/>
<path class="st1" d="M230.5,195.2l13,34.7h-7.9l-2.6-7.7h-13l-2.7,7.7h-7.7l13.1-34.7H230.5z M230.9,216.5l-4.4-12.7h-0.1l-4.5,12.7
	H230.9z"/>
<path class="st1" d="M256.1,195.2v28.3h15.5v6.4h-23.1v-34.7H256.1z"/>
<g>
	<path class="st1" d="M38.9,19.1c1.6,0,3.1,0.1,4.5,0.4c1.3,0.3,2.5,0.8,3.5,1.4c1,0.7,1.7,1.5,2.2,2.6c0.5,1.1,0.8,2.4,0.8,4
		c0,1.7-0.4,3.2-1.2,4.3c-0.8,1.2-1.9,2.1-3.5,2.8c2.1,0.6,3.7,1.7,4.7,3.2c1,1.5,1.6,3.4,1.6,5.5c0,1.7-0.3,3.2-1,4.5
		c-0.7,1.3-1.6,2.3-2.7,3.1c-1.1,0.8-2.4,1.4-3.9,1.8c-1.5,0.4-3,0.6-4.5,0.6H22.7V19.1H38.9z M37.9,33c1.3,0,2.5-0.3,3.3-1
		c0.9-0.6,1.3-1.7,1.3-3.1c0-0.8-0.1-1.5-0.4-2c-0.3-0.5-0.7-0.9-1.2-1.2c-0.5-0.3-1-0.5-1.7-0.6c-0.6-0.1-1.3-0.2-2-0.2h-7.1v8
		H37.9z M38.3,47.6c0.7,0,1.4-0.1,2.1-0.2c0.7-0.1,1.3-0.4,1.8-0.7c0.5-0.3,0.9-0.8,1.2-1.4c0.3-0.6,0.5-1.3,0.5-2.2
		c0-1.8-0.5-3-1.5-3.8c-1-0.8-2.3-1.1-3.9-1.1h-8.2v9.4H38.3z"/>
	<path class="st1" d="M77.7,19.1v6.4H60.6v7.4h15.6v5.9H60.6v8.4h17.5v6.4H53V19.1H77.7z"/>
	<path class="st1" d="M87.2,19.1v28h15.7v6.4H79.7V19.1H87.2z"/>
	<path class="st1" d="M111.9,19.1v28h15.7v6.4h-23.3V19.1H111.9z"/>
	<path class="st1" d="M153.6,19.1v6.4h-17.1v7.4h15.6v5.9h-15.6v8.4H154v6.4h-25V19.1H153.6z"/>
	<path class="st1" d="M183.3,19.1h8.5l7,13.6l6.9-13.6h8.4l-11.7,21.2v13.2h-7.6V40.1L183.3,19.1z"/>
	<path class="st1" d="M233.6,19.1c1.5,0,2.9,0.2,4.2,0.7c1.2,0.5,2.3,1.2,3.2,2c0.9,0.9,1.6,1.9,2,3c0.5,1.1,0.7,2.4,0.7,3.7
		c0,2-0.4,3.8-1.3,5.2c-0.9,1.5-2.2,2.6-4.2,3.4v0.1c0.9,0.3,1.7,0.6,2.3,1.2c0.6,0.5,1.1,1.2,1.5,1.9c0.4,0.7,0.7,1.5,0.8,2.4
		c0.2,0.9,0.3,1.7,0.4,2.6c0,0.5,0.1,1.2,0.1,1.9c0,0.7,0.1,1.5,0.2,2.3c0.1,0.8,0.2,1.5,0.4,2.2c0.2,0.7,0.4,1.3,0.8,1.8h-7.6
		c-0.4-1.1-0.7-2.4-0.8-3.9c-0.1-1.5-0.2-3-0.4-4.3c-0.3-1.8-0.8-3.1-1.6-3.9c-0.8-0.8-2.2-1.3-4.1-1.3h-7.6v13.4H215V19.1H233.6z
		 M230.9,34.6c1.7,0,3-0.4,3.9-1.2c0.9-0.8,1.3-2,1.3-3.8c0-1.7-0.4-2.9-1.3-3.6c-0.9-0.8-2.2-1.1-3.9-1.1h-8.3v9.7H230.9z"/>
	<path class="st1" d="M270.8,19.1v6.4h-17.1v7.4h15.6v5.9h-15.6v8.4h17.5v6.4h-25V19.1H270.8z"/>
</g>
<path class="st2" d="M259.5,151.5c2.2-0.6,4.2-1.6,6-2.9c2.1-1.6,3.7-3.8,5-6.6c1.3-2.8,1.9-6.4,1.9-10.8v-11.7h-17
	c0,3-0.1,5.5-0.2,7.4c-0.2,2-0.4,3.5-0.8,4.7c-0.4,1.2-0.9,2-1.6,2.5c-0.7,0.5-1.6,0.7-2.7,0.7c-1.3,0-2.4-0.3-3.2-1
	c-0.8-0.6-1.4-1.8-1.8-3.4c-0.4-1.6-0.7-3.8-0.8-6.6c-0.1-2.8-0.2-6.3-0.2-10.5c0-4.2,0.1-7.7,0.2-10.5c0.1-2.8,0.4-5,0.8-6.6
	c0.4-1.6,1-2.8,1.8-3.4c0.8-0.6,1.8-1,3.2-1c1.7,0,2.9,0.6,3.7,1.9c0.8,1.3,1.1,3.7,1.1,7.3v3.5h17v-4c0-3-0.4-5.8-1.2-8.2
	c-0.2-0.5-0.3-0.9-0.5-1.3c-9.4-6.4-16.6-8.9-27.2-9.7c-1.6,0.3-3.1,0.6-4.4,1.1c-3.1,1.1-5.6,3-7.5,5.6c-1.9,2.6-3.2,5.9-4,10.1
	c-0.8,4.2-1.2,9.2-1.2,15.2c0,5.9,0.3,10.8,1,15c0.5,3.3,1.4,10.7,2.7,14.8c4.9,0.9,10.2,2.5,16.2,5.3
	C250.3,150.5,254.9,151.3,259.5,151.5z"/>
<path class="st2" d="M200.7,147.9c5.1-2.8,10.8-5.2,17.6-5.8V77.7c-7-0.1-11.9,0.4-17.6,1.7V147.9z"/>
<path class="st2" d="M186.2,117.7c-2.1-1.7-4.5-3.2-6.9-4.3c-2.5-1.1-4.8-2.2-6.9-3.2c-2.1-1.1-3.9-2.3-5.4-3.7
	c-1.4-1.4-2.1-3.4-2.1-5.8c0-1.7,0.4-3.2,1.3-4.6c0.9-1.4,2.3-2,4.2-2c1.7,0,3,0.8,3.8,2.4c0.8,1.6,1.2,3.5,1.2,5.7v1.8h16.5
	c0-8.1-1.7-13.9-5.2-17.6c-3.4-3.7-9-5.5-16.7-5.5c-7.4,0-13,2-16.7,6c-3.7,4-5.5,9.8-5.5,17.4c0,4.4,0.7,8,2,10.7
	c1.4,2.7,3.1,4.9,5.1,6.6c2,1.7,4.3,3,6.7,4.1c2.4,1.1,4.6,2.1,6.7,3.1c2.1,1,3.8,2.2,5.1,3.7c1.4,1.4,2,3.4,2,5.8
	c0,2-0.5,3.7-1.5,5.1c-1,1.4-2.4,2.1-4.2,2.1c-1.7,0-3.1-0.6-4.2-1.9c-1.1-1.3-1.6-3.6-1.6-6.8v-1.8h-17v11.4c0,3.9,0.5,7.2,1.5,9.9
	c0.7,1.8,1.6,3.4,2.7,4.7c5.3-0.6,11.4-0.6,18.3,0.4c8,1.1,14.6-3,21.8-7.8c1.5-5.8,2.3-13.1,2.3-18c0-4.6-0.7-8.2-2.1-11.1
	C190.1,121.8,188.4,119.5,186.2,117.7z"/>
<path class="st2" d="M122.8,68v78.3c0,3.5-0.5,5.9-1.4,7.1c-0.9,1.2-2.2,1.8-3.9,1.8c-1.6,0-2.9-0.6-3.9-1.8
	c-0.9-1.2-1.4-3.5-1.4-7.1V69c-6.1,1-11.8,2.4-17.6,4.1v72.9c0,5.1,0.5,9.3,1.5,12.7c0.2,0.6,0.4,1.2,0.6,1.8
	c14.5,16.5,23.2,9.2,39.6,3.9c1-1.6,1.9-3.5,2.6-5.7c1-3.4,1.5-7.6,1.5-12.7V70.9C135.9,69,130.5,67.8,122.8,68z"/>
<path class="st2" d="M85.8,150.7l0.8-75.3c-7.9,2.2-16.3,4.3-26,5.3l-7.1,41.6h-0.2l-7.2-41.4c-5.6-0.4-16.9-0.9-25.3,1.7l-5.7,72.2
	c7.7-3.3,14.9-5.8,21.6-7.6l0.8-49.3h0.2l8.2,47.2c5.5-1,10.5-1.5,15.3-1.4l7.9-45.8h0.2v46.6C75.4,145.4,80.9,147.5,85.8,150.7z"/>
<g>
	<defs>
		<polygon id="SVGID_1_" points="271.5,186.1 22.4,186.1 22.4,54.5 271.5,54.5 		"/>
	</defs>
	<clipPath id="SVGID_2_">
		<use xlink:href="#SVGID_1_"  style="overflow:visible;"/>
	</clipPath>
	<g class="st3">
		<path class="st4" d="M9.9,161.3c42.5-19.1,68.9-17.6,86.5,2.9c22.3,26,30.8-4.4,73.3,1.5c22,3,33.7-33.7,76.2-13.2
			c16,7.7,31.8,4,36.2,6.2l-7-66.6c-25.5-7-25.5-11.8-49.4-14.1c-26.4-2.6-32.8,6.6-54.9,5c-22.1-1.6-23.4-16-48-15.2
			c-25.3,0.8-42.3,13.2-73.1,13.2c-0.6,0-39.7-5-39.6,12.7C10.2,104.1,0.4,165.6,9.9,161.3z"/>
	</g>
	<path class="st5" d="M259.5,151.3c2.2-0.6,4.2-1.6,6-2.9c2.1-1.6,3.7-3.8,5-6.6c1.3-2.8,1.9-6.4,1.9-10.8v-11.7h-17
		c0,3-0.1,5.5-0.2,7.4c-0.2,2-0.4,3.5-0.8,4.7c-0.4,1.2-0.9,2-1.6,2.5c-0.7,0.5-1.6,0.7-2.7,0.7c-1.3,0-2.4-0.3-3.2-1
		c-0.8-0.6-1.4-1.8-1.8-3.4c-0.4-1.6-0.7-3.8-0.8-6.6c-0.1-2.8-0.2-6.3-0.2-10.5c0-4.2,0.1-7.7,0.2-10.5c0.1-2.8,0.4-5,0.8-6.6
		c0.4-1.6,1-2.8,1.8-3.4c0.8-0.6,1.8-1,3.2-1c1.7,0,2.9,0.6,3.7,1.9c0.8,1.3,1.1,3.7,1.1,7.3v3.5h17v-4c0-3-0.4-5.8-1.2-8.2
		c-0.2-0.5-0.3-0.9-0.5-1.3c-9.4-6.4-16.6-8.9-27.2-9.7c-1.6,0.3-3.1,0.6-4.4,1.1c-3.1,1.1-5.6,3-7.5,5.6c-1.9,2.6-3.2,5.9-4,10.1
		c-0.8,4.2-1.2,9.2-1.2,15.2c0,5.9,0.3,10.8,1,15c0.5,3.3,1.4,10.7,2.7,14.8c4.9,0.9,10.2,2.5,16.2,5.3
		C250.3,150.3,254.9,151.2,259.5,151.3z"/>
	<path class="st5" d="M200.7,147.8c5.1-2.8,10.8-5.2,17.6-5.8V77.6c-7-0.1-11.9,0.4-17.6,1.7V147.8z"/>
	<path class="st5" d="M186.2,117.6c-2.1-1.7-4.5-3.2-6.9-4.3c-2.5-1.1-4.8-2.2-6.9-3.2c-2.1-1-3.9-2.3-5.4-3.7
		c-1.4-1.4-2.1-3.4-2.1-5.8c0-1.7,0.4-3.2,1.3-4.6c0.9-1.4,2.3-2.1,4.2-2.1c1.7,0,3,0.8,3.8,2.4c0.8,1.6,1.2,3.5,1.2,5.7v1.8h16.5
		c0-8.1-1.7-13.9-5.2-17.6c-3.4-3.7-9-5.5-16.7-5.5c-7.4,0-13,2-16.7,6c-3.7,4-5.5,9.8-5.5,17.4c0,4.4,0.7,8,2,10.7
		c1.4,2.7,3.1,4.9,5.1,6.6c2,1.7,4.3,3,6.7,4.1c2.4,1,4.6,2.1,6.7,3.1c2.1,1,3.8,2.2,5.1,3.7c1.4,1.4,2,3.4,2,5.8
		c0,2-0.5,3.7-1.5,5.1c-1,1.4-2.4,2.1-4.2,2.1c-1.7,0-3.1-0.6-4.2-1.9c-1.1-1.3-1.6-3.6-1.6-6.8V135h-17v11.4c0,3.9,0.5,7.2,1.5,9.9
		c0.7,1.8,1.6,3.4,2.7,4.7c5.3-0.6,11.4-0.6,18.3,0.4c8,1.1,14.6-3,21.8-7.8c1.5-5.8,2.3-13.1,2.3-18c0-4.6-0.7-8.2-2.1-11.1
		C190.1,121.7,188.4,119.4,186.2,117.6z"/>
	<path class="st5" d="M122.8,67.9v78.3c0,3.5-0.5,5.9-1.4,7.1c-0.9,1.2-2.2,1.8-3.9,1.8c-1.6,0-2.9-0.6-3.9-1.8
		c-0.9-1.2-1.4-3.5-1.4-7.1V68.9c-6.1,1-11.8,2.4-17.6,4.1v72.9c0,5.1,0.5,9.3,1.5,12.7c0.2,0.6,0.4,1.2,0.6,1.8
		c14.5,16.5,23.2,9.2,39.6,3.9c1-1.6,1.9-3.5,2.6-5.7c1-3.4,1.5-7.6,1.5-12.7V70.8C135.9,68.9,130.5,67.6,122.8,67.9z"/>
	<path class="st5" d="M85.8,150.6l0.8-75.3c-7.9,2.2-16.3,4.3-26,5.3l-7.1,41.6h-0.2l-7.2-41.4c-5.6-0.4-16.9-0.9-25.3,1.7
		l-5.7,72.2c7.7-3.3,14.9-5.8,21.6-7.6l0.8-49.3h0.2l8.2,47.2c5.5-1,10.5-1.5,15.3-1.4l7.9-45.8h0.2v46.6
		C75.4,145.3,80.9,147.4,85.8,150.6z"/>
	<g class="st3">
		<path class="st6" d="M7,110.7c2-7.5,3.1-13.6,3.1-16.9C10,76.1,49,81.1,49.7,81.1c30.8,0,47.7-12.4,73.1-13.2
			c24.7-0.8,25.9,13.6,48,15.2c22.1,1.6,28.4-7.6,54.9-5c23.8,2.3,23.8,7.1,49.4,14.1l5.5,18.2c-1.1-17.3-2.3-29.3-2.3-29.3
			c-3.6-27.5-37.8-18.5-45.8-22.3c-16.4-7.8-34.6,7.8-46.8,4.4c-24.3-6.9-21.8-8-39.7-2.2c-18.1,5.9-17.2-2-34.1-2.6
			c-11-0.4-33.2,2.8-44.4,8.3C50.3,75.1-0.6,45.2,10.2,87.4C10.3,87.9,9,96.9,7,110.7z"/>
	</g>
	<g class="st3">
		<path class="st1" d="M294.2,155.5c-14.7-4.3-32.3,4.8-48.4-2.9c-42.5-20.5-54.2,16.2-76.2,13.2c-42.5-5.9-51,24.5-73.3-1.5
			c-17.6-20.5-44-22-86.5-2.9c-10,4.5-2.8,27.7-4.4,30.2h33.2c0.3-1.8,0.6-2.7,0.6-2.8c2.3-8.9,7.1-16.8,13.1-21.8
			c6-5,14.6-7.5,21.4-6.3l0.3,0.1c7.8,1.6,12.5,9.1,12.4,15.1c-0.1,4.3-1.1,8-3.1,10.8c-1.3,1.9-3.6,3.9-6.5,4.9h219.5
			C296.3,191.6,298,156.6,294.2,155.5z"/>
	</g>
</g>
<path class="st1" d="M72.8,166.5c-4.6-0.9-11.7,0.8-16.7,5c-4.5,3.7-8.9,10.2-11.1,18.7c0,0-0.6,2.3-1.5,8c-0.9,5.6-1.1,8.7-1.1,8.8
	c-3,19.2-4.3,21.4-11.1,22.6c-3.3,0.6-4-2.2-2.5-3.2c2.4-1.7,4.5-2.8,4.3-5.3c-0.2-2.5-2.7-4.4-5.6-4.2c-1.9,0.2-3.6,1.2-4.7,2.2
	c-1.6,1.7-2.6,4.4-2.2,7.4c0.3,2.9,2.8,6.5,7.9,7.4c1.3,0.2,3,0.4,4.7,0.1c3.6-0.5,5.9-1.8,8.7-3.7c3.5-2.4,7.9-7.9,11.2-16.7
	c1-2.8,2.2-7.1,2.2-7.2c0,0,0.7-3.2,1.3-6.8c0.6-3.6,2.2-11.4,2.2-11.4c3-12.4,5.2-15.8,10.6-16.6c0.3,0,0.6-0.1,0.9-0.1
	c1.9-0.2,2.5,0.7,2.7,1c1.4,3.1-5.5,3.6-5.1,9.7c0.1,2.5,2.7,4.4,5.6,4.2c2.2-0.2,4-1.8,4.9-3.1c0.9-1.3,2-3.5,2.1-7.5
	C80.5,172.6,77.8,167.5,72.8,166.5z"/>
<path class="st1" d="M55.9,201.6l6.4,0c0.8,0,1.9-0.3,2.3-0.8c0.6-0.6,0.9-2.2,0.9-2.7c0-1.3-1.2-2.5-2.7-2.5l-5.3,0l-13.8,0l-6.5,0
	c-0.8,0-1.5,0.3-2,0.8c-0.5,0.4-1.1,1.5-1.1,2.4c0,1.3,0.7,2.9,2.5,2.9l5.4,0L55.9,201.6z"/>
</svg>
